<?xml version="1.0" standalone="no"?>
<!DOCTYPE svg PUBLIC "-//W3C//DTD SVG 20010904//EN"
 "http://www.w3.org/TR/2001/REC-SVG-20010904/DTD/svg10.dtd">
<svg version="1.0" xmlns="http://www.w3.org/2000/svg"
 width="700.000000pt" height="700.000000pt" viewBox="0 0 700.000000 700.000000"
 preserveAspectRatio="xMidYMid meet">
<metadata>
Created by potrace 1.11, written by Peter Selinger 2001-2013
</metadata>
<g transform="translate(0.000000,700.000000) scale(0.100000,-0.100000)"
fill="#000000" stroke="none">
<path d="M3340 6994 c-607 -58 -1141 -429 -1411 -979 -132 -271 -179 -494
-179 -862 l0 -193 -235 0 c-134 0 -257 -5 -287 -11 -135 -28 -244 -113 -305
-237 l-38 -76 -3 -532 c-3 -519 -2 -534 18 -595 37 -108 118 -202 219 -254
l51 -25 0 -885 0 -885 -85 0 c-50 0 -99 -6 -118 -14 -71 -30 -68 -20 -233
-678 -107 -428 -152 -622 -148 -643 10 -49 36 -86 76 -106 35 -18 67 -19 650
-19 677 0 654 -2 702 63 21 28 21 37 26 966 l5 938 80 -24 c44 -14 85 -30 91
-37 6 -6 49 -123 94 -260 62 -186 91 -258 112 -282 32 -36 92 -62 232 -99 49
-14 90 -26 92 -28 2 -2 -23 -173 -56 -380 -33 -207 -60 -399 -60 -426 0 -39 6
-56 27 -82 52 -61 22 -59 843 -59 811 0 788 -1 839 54 41 44 38 96 -28 510
-34 209 -59 381 -57 383 2 2 43 14 92 28 140 37 200 63 232 99 21 24 50 96
112 282 45 137 88 254 94 260 6 7 47 23 91 37 l80 24 5 -938 c5 -929 5 -938
26 -966 48 -65 25 -63 702 -63 583 0 615 1 650 19 38 20 64 55 76 103 9 38
-289 1227 -318 1271 -34 51 -78 67 -178 67 l-88 0 0 885 0 885 51 25 c101 52
182 146 219 254 20 61 21 76 18 595 l-3 532 -38 76 c-61 124 -170 209 -305
237 -30 6 -153 11 -287 11 l-235 0 0 185 c0 372 -47 600 -179 870 -246 501
-712 856 -1254 956 -110 20 -375 32 -477 23z m770 -873 c53 -11 106 -62 115
-113 3 -18 34 -309 69 -646 35 -337 65 -615 67 -616 13 -12 343 71 491 124 48
16 91 30 97 30 7 0 11 -50 11 -153 l0 -154 -107 -33 c-60 -18 -121 -36 -138
-40 -432 -106 -730 -140 -1220 -140 -539 1 -937 54 -1352 182 l-103 31 0 154
c0 99 4 153 10 153 6 0 55 -15 108 -34 155 -54 468 -132 481 -120 2 1 32 279
67 616 35 337 66 628 69 646 9 49 63 103 111 112 55 11 1169 11 1224 1z m479
-891 c49 -24 86 -94 77 -143 -20 -105 -125 -157 -216 -106 -49 28 -70 66 -70
127 0 55 22 91 74 123 40 24 87 24 135 -1z m-293 -1456 c75 -36 101 -151 47
-215 -52 -61 -22 -59 -843 -59 -821 0 -791 -2 -843 59 -53 63 -29 178 46 215
28 14 116 16 795 16 681 0 768 -2 798 -16z m7 -877 c88 -57 90 -195 4 -247
-31 -19 -56 -20 -805 -20 -678 0 -777 2 -803 15 -104 55 -86 230 27 265 16 5
371 8 789 7 715 -2 763 -3 788 -20z m-1533 -1096 c486 -72 1084 -66 1563 15
53 10 100 14 103 11 8 -8 -76 -250 -90 -259 -18 -12 -214 -56 -321 -72 -314
-48 -736 -48 -1050 0 -107 16 -303 60 -321 72 -10 7 -94 233 -94 254 0 7 14 9
38 5 20 -3 98 -15 172 -26z"/>
<path d="M3046 5798 c-9 -51 -115 -1092 -112 -1095 27 -28 838 -39 1030 -15
55 7 101 14 102 15 2 1 -112 1109 -115 1125 -1 1 -203 2 -451 2 l-449 0 -5
-32z m580 -286 c62 -32 97 -65 129 -124 27 -47 30 -62 30 -138 0 -64 -5 -94
-19 -120 -34 -63 -74 -106 -128 -136 -47 -26 -63 -29 -138 -29 -75 0 -91 3
-138 29 -88 49 -142 132 -149 231 -11 138 62 252 194 301 54 20 167 13 219
-14z"/>
</g>
</svg>
